<?xml version="1.0" standalone="no"?><!DOCTYPE svg PUBLIC "-//W3C//DTD SVG 1.1//EN" "http://www.w3.org/Graphics/SVG/1.1/DTD/svg11.dtd"><svg t="1545729983233" class="icon" style="" viewBox="0 0 1024 1024" version="1.1" xmlns="http://www.w3.org/2000/svg" p-id="2237" xmlns:xlink="http://www.w3.org/1999/xlink" width="200" height="200"><defs><style type="text/css"></style></defs><path d="M0 682.666667c55.466667-68.266667 115.2-123.733333 183.466667-170.666667-42.666667-34.133333-110.933333-85.333333-81.066667-123.733333 25.6-25.6 110.933333-21.333333 251.733333 12.8 106.666667-55.466667 170.666667-72.533333 192-51.2 25.6 17.066667 12.8 68.266667-46.933333 149.333333 200.533333 0 375.466667 38.4 524.8 110.933333-328.533333-93.866667-644.266667-81.066667-955.733333 38.4l123.733333-98.133333c55.466667-21.333333 123.733333-34.133333 204.8-38.4 8.533333-8.533333 42.666667-64 12.8-72.533333-89.6-4.266667-226.133333 76.8-409.6 243.2z m238.933333-221.866667l81.066667-51.2c-55.466667-4.266667-89.6 0-102.4 12.8-8.533333 12.8 0 25.6 21.333333 38.4z" p-id="2238"></path></svg>